<svg xmlns="http://www.w3.org/2000/svg" width="53.191" height="70.168" viewBox="0 0 53.191 70.168">
  <g id="clipboard" transform="translate(0.5 0.5)">
    <path id="Path_59" data-name="Path 59" d="M138.963,133.38h4.579a1.649,1.649,0,0,0,1.648-1.647v-4.574a1.649,1.649,0,0,0-1.648-1.647h-4.579a1.649,1.649,0,0,0-1.648,1.647v4.574A1.649,1.649,0,0,0,138.963,133.38Zm.375-5.846h3.828v3.824h-3.828Z" transform="translate(-127.104 -108.536)" fill="#fff" stroke="#fff" stroke-width="1"/>
    <path id="Path_60" data-name="Path 60" d="M138.963,211.571h4.579a1.649,1.649,0,0,0,1.648-1.647v-4.578a1.649,1.649,0,0,0-1.648-1.647h-4.579a1.649,1.649,0,0,0-1.648,1.647v4.578A1.65,1.65,0,0,0,138.963,211.571Zm.375-5.851h3.828v3.828h-3.828Z" transform="translate(-127.104 -176.149)" fill="#fff" stroke="#fff" stroke-width="1"/>
    <path id="Path_61" data-name="Path 61" d="M138.963,289.782h4.579a1.649,1.649,0,0,0,1.648-1.647V283.56a1.649,1.649,0,0,0-1.648-1.647h-4.579a1.649,1.649,0,0,0-1.648,1.647v4.574A1.65,1.65,0,0,0,138.963,289.782Zm.375-5.846h3.828v3.824h-3.828Z" transform="translate(-127.104 -243.785)" fill="#fff" stroke="#fff" stroke-width="1"/>
    <path id="Path_62" data-name="Path 62" d="M269.849,134.37h6.235a1.011,1.011,0,1,0,0-2.022h-6.235a1.011,1.011,0,1,0,0,2.022Z" transform="translate(-241.028 -114.465)" fill="#fff" stroke="#fff" stroke-width="1"/>
    <path id="Path_63" data-name="Path 63" d="M219.986,134.37h2.658a1.011,1.011,0,1,0,0-2.022h-2.658a1.011,1.011,0,1,0,0,2.022Z" transform="translate(-197.837 -114.465)" fill="#fff" stroke="#fff" stroke-width="1"/>
    <path id="Path_64" data-name="Path 64" d="M219.986,164.362h12.907a1.011,1.011,0,1,0,0-2.022H219.986a1.011,1.011,0,1,0,0,2.022Z" transform="translate(-197.837 -140.405)" fill="#fff" stroke="#fff" stroke-width="1"/>
    <path id="Path_65" data-name="Path 65" d="M219.986,212.586h12.907a1.011,1.011,0,1,0,0-2.022H219.986a1.011,1.011,0,1,0,0,2.022Z" transform="translate(-197.837 -182.113)" fill="#fff" stroke="#fff" stroke-width="1"/>
    <path id="Path_66" data-name="Path 66" d="M219.986,368.988h4.063a1.011,1.011,0,1,0,0-2.022h-4.063a1.011,1.011,0,1,0,0,2.022Z" transform="translate(-197.837 -317.382)" fill="#fff" stroke="#fff" stroke-width="1"/>
    <path id="Path_67" data-name="Path 67" d="M219.986,398.98h2.508a1.011,1.011,0,1,0,0-2.022h-2.508a1.011,1.011,0,1,0,0,2.022Z" transform="translate(-197.837 -343.321)" fill="#fff" stroke="#fff" stroke-width="1"/>
    <path id="Path_68" data-name="Path 68" d="M219.986,242.577h6.235a1.011,1.011,0,1,0,0-2.022h-6.235a1.011,1.011,0,1,0,0,2.022Z" transform="translate(-197.837 -208.051)" fill="#fff" stroke="#fff" stroke-width="1"/>
    <path id="Path_69" data-name="Path 69" d="M299.239,240.555H296.58a1.011,1.011,0,1,0,0,2.022h2.658a1.011,1.011,0,1,0,0-2.022Z" transform="translate(-264.182 -208.051)" fill="#fff" stroke="#fff" stroke-width="1"/>
    <path id="Path_70" data-name="Path 70" d="M219.986,290.772h12.907a1.011,1.011,0,1,0,0-2.022H219.986a1.011,1.011,0,1,0,0,2.022Z" transform="translate(-197.837 -249.734)" fill="#fff" stroke="#fff" stroke-width="1"/>
    <path id="Path_71" data-name="Path 71" d="M219.986,320.793h6.235a1.011,1.011,0,1,0,0-2.022h-6.235a1.011,1.011,0,1,0,0,2.022Z" transform="translate(-197.837 -275.699)" fill="#fff" stroke="#fff" stroke-width="1"/>
    <path id="Path_72" data-name="Path 72" d="M299.239,318.77H296.58a1.011,1.011,0,1,0,0,2.022h2.658a1.011,1.011,0,1,0,0-2.022Z" transform="translate(-264.182 -275.698)" fill="#fff" stroke="#fff" stroke-width="1"/>
    <path id="Path_73" data-name="Path 73" d="M111.889,50.59a6.111,6.111,0,0,0-4.212-2.579,10.165,10.165,0,0,0,.695-6.677,1.012,1.012,0,0,0-1.089-.788V29.456a1.012,1.012,0,1,0-2.023,0v11.6A9.9,9.9,0,0,0,102.47,42.6V13.4a1.708,1.708,0,0,0-1.7-1.713H95.38V8.962h9.879v15.85a1.012,1.012,0,1,0,2.023,0V8.6a1.676,1.676,0,0,0-1.667-1.682H95.141a1.587,1.587,0,0,0-1.352-.764H89.058V4.791a4.747,4.747,0,1,0-9.493,0V6.157H74.5a1.592,1.592,0,0,0-1.355.764H62.669A1.676,1.676,0,0,0,61,8.6V64.717A1.676,1.676,0,0,0,62.669,66.4H92.975A7.283,7.283,0,0,0,95.1,68.5a4.531,4.531,0,0,0,2.379.662,6.784,6.784,0,0,0,3.061-.83c.782-.4.782-.4,1.563,0,2.057,1.048,3.889,1.1,5.442.168a10.011,10.011,0,0,0,3.261-3.988c1.865-3.486,3.693-10.07,1.084-13.921ZM102.14,45.9a7.735,7.735,0,0,1,4.425-3.123,7.87,7.87,0,0,1-1.138,5.117c-.322.017-.656.045-1.006.089a6.827,6.827,0,0,0-2.787.944c-.107.061-.235.134-.311.168-.076-.034-.2-.107-.311-.168l-.059-.033A7.54,7.54,0,0,1,102.14,45.9ZM81.588,4.791a2.724,2.724,0,1,1,5.447,0V6.157H81.588ZM74.927,8.2h18.43v4.248H74.927Zm-11.9,56.159V8.962H72.9v2.72H67.515a1.708,1.708,0,0,0-1.7,1.713V24.812a1.012,1.012,0,1,0,2.023,0V13.724h5.306a1.592,1.592,0,0,0,1.356.764H93.789a1.587,1.587,0,0,0,1.352-.764h5.306v31.06a9.547,9.547,0,0,0-1.411,3.345,8.079,8.079,0,0,0-.815-.144c-4.34-.547-6.454,1.113-7.464,2.6C89.124,53,89.228,56.477,89.991,59.6H78.384V51.214a1.71,1.71,0,0,0-1.7-1.716H67.837V29.456a1.012,1.012,0,1,0-2.023,0V50.519a1.025,1.025,0,0,0,.315.741l10.546,10.1a1.006,1.006,0,0,0,.7.28H90.6a20.714,20.714,0,0,0,1.16,2.716ZM76.361,51.54v6.7l-7-6.7Zm32.665,12c-1.919,3.587-3.379,4.308-6.012,2.967a2.993,2.993,0,0,0-3.385,0c-2.631,1.341-4.092.62-6.011-2.967a18.622,18.622,0,0,1-1.329-3.209l-.009-.03c-.981-3.171-1.168-6.62.147-8.561a4.664,4.664,0,0,1,4.155-1.823,6.665,6.665,0,0,1,3.306.715,2.725,2.725,0,0,0,1.627.508,4.2,4.2,0,0,0,1.446-.617,5.055,5.055,0,0,1,1.711-.513c2.675-.337,4.541.246,5.548,1.731C112.009,54.385,111.018,59.816,109.025,63.541Z" transform="translate(-61.002 0)" fill="#fff" stroke="#fff" stroke-width="1"/>
  </g>
</svg>
