<svg xmlns="http://www.w3.org/2000/svg" width="16.012" height="9.029" viewBox="0 0 16.012 9.029">
  <path id="Icon_zocial-email" data-name="Icon zocial-email" d="M.072,12.3V4.868q0-.013.046-.245l5.234,3.74L.134,12.555A.935.935,0,0,1,.072,12.3Zm.695-8.19a.783.783,0,0,1,.262-.039h14.1a1.032,1.032,0,0,1,.278.039L10.155,7.86l-.695.464-1.374.942L6.712,8.324,6.017,7.86Zm.015,8.951L6.048,8.84l2.038,1.38,2.038-1.38,5.265,4.218a.873.873,0,0,1-.262.039H1.029a.823.823,0,0,1-.247-.039ZM10.819,8.363l5.219-3.74a.655.655,0,0,1,.046.245V12.3a.839.839,0,0,1-.046.258Z" transform="translate(-0.072 -4.068)" fill="#fff"/>
</svg>
